# xmcd
#
# Track frame offsets:
#	182
#	21575
#	43082
#	66002
#	85970
#	106272
#
# Disc length: 1670 seconds
#
# Revision: 0
# Processed by: cddbd v1.5.2PL0 Copyright (c) Steve Scherf et al.
# Submitted via: EasyCDDAExtractor 16.0.6.1
#
DISCID=4b068406
DTITLE=Andre Nicolas - Myrage
DYEAR=1990
DGENRE=Zouk
TTITLE0=Chakobéy
TTITLE1=La Vie Mwen
TTITLE2=Tempo
TTITLE3=Zin King
TTITLE4=L'Anmou Ké Diré
TTITLE5=En Dé Bra'w
EXTD=
EXTT0=
EXTT1=
EXTT2=
EXTT3=
EXTT4=
EXTT5=
PLAYORDER=
